<mxfile host="Electron" modified="2023-08-31T22:55:41.907Z" agent="Mozilla/5.0 (X11; Linux x86_64) AppleWebKit/537.36 (KHTML, like Gecko) draw.io/21.6.8 Chrome/114.0.5735.289 Electron/25.5.0 Safari/537.36" etag="QPfuL5xPsEaDfAMdyofx" version="21.6.8" type="device">
  <diagram name="Page-1" id="ip5mfq6mZ9e08EdxUCp0">
    <mxGraphModel dx="290" dy="169" grid="1" gridSize="10" guides="1" tooltips="1" connect="1" arrows="1" fold="1" page="1" pageScale="1" pageWidth="827" pageHeight="1169" math="0" shadow="0">
      <root>
        <mxCell id="0" />
        <mxCell id="1" parent="0" />
        <mxCell id="GM6LKakHsOpX3G1ed7Ud-50" value="&lt;font style=&quot;font-size: 15px;&quot;&gt;HPC&lt;/font&gt;" style="shape=mxgraph.ibm.box;prType=zone;fontStyle=0;verticalAlign=top;align=left;spacingLeft=32;spacingTop=4;fillColor=#DFE0CA;rounded=0;whiteSpace=wrap;html=1;strokeColor=#919191;strokeWidth=1;dashed=0;container=1;spacing=-4;collapsible=0;expand=0;recursiveResize=0;opacity=50;" parent="1" vertex="1">
          <mxGeometry x="460" y="80" width="1120" height="790" as="geometry" />
        </mxCell>
        <mxCell id="GM6LKakHsOpX3G1ed7Ud-171" style="edgeStyle=elbowEdgeStyle;rounded=0;orthogonalLoop=1;jettySize=auto;html=1;exitX=1.002;exitY=0.553;exitDx=0;exitDy=0;elbow=vertical;shape=link;strokeColor=#FF8E4D;exitPerimeter=0;" parent="GM6LKakHsOpX3G1ed7Ud-50" edge="1" target="GM6LKakHsOpX3G1ed7Ud-63" source="GM6LKakHsOpX3G1ed7Ud-72">
          <mxGeometry relative="1" as="geometry">
            <mxPoint x="803.0799999999999" y="406" as="sourcePoint" />
            <mxPoint x="900" y="407.6" as="targetPoint" />
            <Array as="points">
              <mxPoint x="930" y="470" />
            </Array>
          </mxGeometry>
        </mxCell>
        <mxCell id="GM6LKakHsOpX3G1ed7Ud-174" value="Read" style="edgeLabel;html=1;align=center;verticalAlign=middle;resizable=0;points=[];labelBackgroundColor=none;fontColor=#AD7B4C;fontStyle=1" parent="GM6LKakHsOpX3G1ed7Ud-171" vertex="1" connectable="0">
          <mxGeometry x="0.3382" y="1" relative="1" as="geometry">
            <mxPoint x="-13" y="-10" as="offset" />
          </mxGeometry>
        </mxCell>
        <mxCell id="GM6LKakHsOpX3G1ed7Ud-176" value="Graph Files" style="edgeLabel;html=1;align=center;verticalAlign=middle;resizable=0;points=[];labelBackgroundColor=none;" parent="GM6LKakHsOpX3G1ed7Ud-171" vertex="1" connectable="0">
          <mxGeometry x="0.1014" y="-3" relative="1" as="geometry">
            <mxPoint x="-1" y="6" as="offset" />
          </mxGeometry>
        </mxCell>
        <mxCell id="GM6LKakHsOpX3G1ed7Ud-72" value="Island 6 - Intel Haswell Cluster" style="fontStyle=0;verticalAlign=top;align=center;spacingTop=-2;fillColor=none;rounded=0;whiteSpace=wrap;html=1;strokeColor=#00882B;strokeWidth=2;dashed=1;container=1;collapsible=0;expand=0;recursiveResize=0;" parent="GM6LKakHsOpX3G1ed7Ud-50" vertex="1">
          <mxGeometry x="360" y="90" width="470" height="660" as="geometry" />
        </mxCell>
        <mxCell id="IxmQN1B3EQSxK7bYvT0Q-4" value="Evaluators" style="fontStyle=0;verticalAlign=top;align=center;spacingTop=-2;fillColor=none;rounded=0;whiteSpace=wrap;html=1;strokeColor=#00882B;strokeWidth=2;dashed=1;container=1;collapsible=0;expand=0;recursiveResize=0;" vertex="1" parent="GM6LKakHsOpX3G1ed7Ud-72">
          <mxGeometry x="250" y="308" width="200" height="320" as="geometry" />
        </mxCell>
        <mxCell id="IxmQN1B3EQSxK7bYvT0Q-36" value="Random" style="sketch=0;points=[[0,0,0],[0.25,0,0],[0.5,0,0],[0.75,0,0],[1,0,0],[0,1,0],[0.25,1,0],[0.5,1,0],[0.75,1,0],[1,1,0],[0,0.25,0],[0,0.5,0],[0,0.75,0],[1,0.25,0],[1,0.5,0],[1,0.75,0]];outlineConnect=0;fontColor=#232F3E;gradientColor=#4AB29A;gradientDirection=north;fillColor=none;strokeColor=#067F68;dashed=0;verticalLabelPosition=bottom;verticalAlign=top;align=center;html=1;fontSize=12;fontStyle=0;aspect=fixed;shape=mxgraph.aws4.resourceIcon;resIcon=mxgraph.aws4.lookout_for_metrics;" vertex="1" parent="IxmQN1B3EQSxK7bYvT0Q-4">
          <mxGeometry x="30" y="45" width="58" height="58" as="geometry" />
        </mxCell>
        <mxCell id="IxmQN1B3EQSxK7bYvT0Q-37" value="Greedy" style="sketch=0;points=[[0,0,0],[0.25,0,0],[0.5,0,0],[0.75,0,0],[1,0,0],[0,1,0],[0.25,1,0],[0.5,1,0],[0.75,1,0],[1,1,0],[0,0.25,0],[0,0.5,0],[0,0.75,0],[1,0.25,0],[1,0.5,0],[1,0.75,0]];outlineConnect=0;fontColor=#232F3E;gradientColor=#4AB29A;gradientDirection=north;fillColor=none;strokeColor=#067F68;dashed=0;verticalLabelPosition=bottom;verticalAlign=top;align=center;html=1;fontSize=12;fontStyle=0;aspect=fixed;shape=mxgraph.aws4.resourceIcon;resIcon=mxgraph.aws4.lookout_for_metrics;" vertex="1" parent="IxmQN1B3EQSxK7bYvT0Q-4">
          <mxGeometry x="113" y="45" width="58" height="58" as="geometry" />
        </mxCell>
        <mxCell id="IxmQN1B3EQSxK7bYvT0Q-38" value="Epsilon Greedy" style="sketch=0;points=[[0,0,0],[0.25,0,0],[0.5,0,0],[0.75,0,0],[1,0,0],[0,1,0],[0.25,1,0],[0.5,1,0],[0.75,1,0],[1,1,0],[0,0.25,0],[0,0.5,0],[0,0.75,0],[1,0.25,0],[1,0.5,0],[1,0.75,0]];outlineConnect=0;fontColor=#232F3E;gradientColor=#4AB29A;gradientDirection=north;fillColor=none;strokeColor=#067F68;dashed=0;verticalLabelPosition=bottom;verticalAlign=top;align=center;html=1;fontSize=12;fontStyle=0;aspect=fixed;shape=mxgraph.aws4.resourceIcon;resIcon=mxgraph.aws4.lookout_for_metrics;" vertex="1" parent="IxmQN1B3EQSxK7bYvT0Q-4">
          <mxGeometry x="30" y="131" width="58" height="58" as="geometry" />
        </mxCell>
        <mxCell id="IxmQN1B3EQSxK7bYvT0Q-39" value="MCTS #1" style="sketch=0;points=[[0,0,0],[0.25,0,0],[0.5,0,0],[0.75,0,0],[1,0,0],[0,1,0],[0.25,1,0],[0.5,1,0],[0.75,1,0],[1,1,0],[0,0.25,0],[0,0.5,0],[0,0.75,0],[1,0.25,0],[1,0.5,0],[1,0.75,0]];outlineConnect=0;fontColor=#232F3E;gradientColor=#4AB29A;gradientDirection=north;fillColor=none;strokeColor=#067F68;dashed=0;verticalLabelPosition=bottom;verticalAlign=top;align=center;html=1;fontSize=12;fontStyle=0;aspect=fixed;shape=mxgraph.aws4.resourceIcon;resIcon=mxgraph.aws4.lookout_for_metrics;" vertex="1" parent="IxmQN1B3EQSxK7bYvT0Q-4">
          <mxGeometry x="113" y="131" width="58" height="58" as="geometry" />
        </mxCell>
        <mxCell id="IxmQN1B3EQSxK7bYvT0Q-40" value="MCTS #2" style="sketch=0;points=[[0,0,0],[0.25,0,0],[0.5,0,0],[0.75,0,0],[1,0,0],[0,1,0],[0.25,1,0],[0.5,1,0],[0.75,1,0],[1,1,0],[0,0.25,0],[0,0.5,0],[0,0.75,0],[1,0.25,0],[1,0.5,0],[1,0.75,0]];outlineConnect=0;fontColor=#232F3E;gradientColor=#4AB29A;gradientDirection=north;fillColor=none;strokeColor=#067F68;dashed=0;verticalLabelPosition=bottom;verticalAlign=top;align=center;html=1;fontSize=12;fontStyle=0;aspect=fixed;shape=mxgraph.aws4.resourceIcon;resIcon=mxgraph.aws4.lookout_for_metrics;" vertex="1" parent="IxmQN1B3EQSxK7bYvT0Q-4">
          <mxGeometry x="30" y="220" width="58" height="58" as="geometry" />
        </mxCell>
        <mxCell id="IxmQN1B3EQSxK7bYvT0Q-41" value="MCTS #3" style="sketch=0;points=[[0,0,0],[0.25,0,0],[0.5,0,0],[0.75,0,0],[1,0,0],[0,1,0],[0.25,1,0],[0.5,1,0],[0.75,1,0],[1,1,0],[0,0.25,0],[0,0.5,0],[0,0.75,0],[1,0.25,0],[1,0.5,0],[1,0.75,0]];outlineConnect=0;fontColor=#232F3E;gradientColor=#4AB29A;gradientDirection=north;fillColor=none;strokeColor=#067F68;dashed=0;verticalLabelPosition=bottom;verticalAlign=top;align=center;html=1;fontSize=12;fontStyle=0;aspect=fixed;shape=mxgraph.aws4.resourceIcon;resIcon=mxgraph.aws4.lookout_for_metrics;" vertex="1" parent="IxmQN1B3EQSxK7bYvT0Q-4">
          <mxGeometry x="113" y="220" width="58" height="58" as="geometry" />
        </mxCell>
        <mxCell id="IxmQN1B3EQSxK7bYvT0Q-55" style="edgeStyle=orthogonalEdgeStyle;rounded=0;orthogonalLoop=1;jettySize=auto;html=1;exitX=0.25;exitY=0;exitDx=0;exitDy=0;dashed=1;strokeColor=#0000FF;" edge="1" parent="GM6LKakHsOpX3G1ed7Ud-72" source="IxmQN1B3EQSxK7bYvT0Q-6" target="IxmQN1B3EQSxK7bYvT0Q-48">
          <mxGeometry relative="1" as="geometry">
            <Array as="points">
              <mxPoint x="70" y="118" />
            </Array>
          </mxGeometry>
        </mxCell>
        <mxCell id="IxmQN1B3EQSxK7bYvT0Q-73" value="(4) Send Trajectories" style="edgeLabel;html=1;align=center;verticalAlign=middle;resizable=0;points=[];rotation=-90;labelBackgroundColor=none;fontStyle=1;fontColor=#0000FF;fontSize=12;" vertex="1" connectable="0" parent="IxmQN1B3EQSxK7bYvT0Q-55">
          <mxGeometry x="-0.3545" y="-1" relative="1" as="geometry">
            <mxPoint x="-11" as="offset" />
          </mxGeometry>
        </mxCell>
        <mxCell id="IxmQN1B3EQSxK7bYvT0Q-6" value="Actors" style="fontStyle=0;verticalAlign=top;align=center;spacingTop=-2;fillColor=none;rounded=0;whiteSpace=wrap;html=1;strokeColor=#00882B;strokeWidth=2;dashed=1;container=1;collapsible=0;expand=0;recursiveResize=0;" vertex="1" parent="GM6LKakHsOpX3G1ed7Ud-72">
          <mxGeometry x="20" y="308" width="200" height="320" as="geometry" />
        </mxCell>
        <mxCell id="IxmQN1B3EQSxK7bYvT0Q-22" value="Actor #1" style="sketch=0;points=[[0,0,0],[0.25,0,0],[0.5,0,0],[0.75,0,0],[1,0,0],[0,1,0],[0.25,1,0],[0.5,1,0],[0.75,1,0],[1,1,0],[0,0.25,0],[0,0.5,0],[0,0.75,0],[1,0.25,0],[1,0.5,0],[1,0.75,0]];outlineConnect=0;fontColor=#232F3E;gradientColor=#4AB29A;gradientDirection=north;fillColor=none;strokeColor=#067F68;dashed=0;verticalLabelPosition=bottom;verticalAlign=top;align=center;html=1;fontSize=12;fontStyle=0;aspect=fixed;shape=mxgraph.aws4.resourceIcon;resIcon=mxgraph.aws4.devops_guru;" vertex="1" parent="IxmQN1B3EQSxK7bYvT0Q-6">
          <mxGeometry x="30" y="45" width="50" height="50" as="geometry" />
        </mxCell>
        <mxCell id="IxmQN1B3EQSxK7bYvT0Q-75" value="Actor #2" style="sketch=0;points=[[0,0,0],[0.25,0,0],[0.5,0,0],[0.75,0,0],[1,0,0],[0,1,0],[0.25,1,0],[0.5,1,0],[0.75,1,0],[1,1,0],[0,0.25,0],[0,0.5,0],[0,0.75,0],[1,0.25,0],[1,0.5,0],[1,0.75,0]];outlineConnect=0;fontColor=#232F3E;gradientColor=#4AB29A;gradientDirection=north;fillColor=none;strokeColor=#067F68;dashed=0;verticalLabelPosition=bottom;verticalAlign=top;align=center;html=1;fontSize=12;fontStyle=0;aspect=fixed;shape=mxgraph.aws4.resourceIcon;resIcon=mxgraph.aws4.devops_guru;" vertex="1" parent="IxmQN1B3EQSxK7bYvT0Q-6">
          <mxGeometry x="110" y="45" width="50" height="50" as="geometry" />
        </mxCell>
        <mxCell id="IxmQN1B3EQSxK7bYvT0Q-76" value="Actor #3" style="sketch=0;points=[[0,0,0],[0.25,0,0],[0.5,0,0],[0.75,0,0],[1,0,0],[0,1,0],[0.25,1,0],[0.5,1,0],[0.75,1,0],[1,1,0],[0,0.25,0],[0,0.5,0],[0,0.75,0],[1,0.25,0],[1,0.5,0],[1,0.75,0]];outlineConnect=0;fontColor=#232F3E;gradientColor=#4AB29A;gradientDirection=north;fillColor=none;strokeColor=#067F68;dashed=0;verticalLabelPosition=bottom;verticalAlign=top;align=center;html=1;fontSize=12;fontStyle=0;aspect=fixed;shape=mxgraph.aws4.resourceIcon;resIcon=mxgraph.aws4.devops_guru;" vertex="1" parent="IxmQN1B3EQSxK7bYvT0Q-6">
          <mxGeometry x="30" y="135" width="50" height="50" as="geometry" />
        </mxCell>
        <mxCell id="IxmQN1B3EQSxK7bYvT0Q-77" value="Actor #4" style="sketch=0;points=[[0,0,0],[0.25,0,0],[0.5,0,0],[0.75,0,0],[1,0,0],[0,1,0],[0.25,1,0],[0.5,1,0],[0.75,1,0],[1,1,0],[0,0.25,0],[0,0.5,0],[0,0.75,0],[1,0.25,0],[1,0.5,0],[1,0.75,0]];outlineConnect=0;fontColor=#232F3E;gradientColor=#4AB29A;gradientDirection=north;fillColor=none;strokeColor=#067F68;dashed=0;verticalLabelPosition=bottom;verticalAlign=top;align=center;html=1;fontSize=12;fontStyle=0;aspect=fixed;shape=mxgraph.aws4.resourceIcon;resIcon=mxgraph.aws4.devops_guru;" vertex="1" parent="IxmQN1B3EQSxK7bYvT0Q-6">
          <mxGeometry x="110" y="135" width="50" height="50" as="geometry" />
        </mxCell>
        <mxCell id="IxmQN1B3EQSxK7bYvT0Q-78" value="Actor #5" style="sketch=0;points=[[0,0,0],[0.25,0,0],[0.5,0,0],[0.75,0,0],[1,0,0],[0,1,0],[0.25,1,0],[0.5,1,0],[0.75,1,0],[1,1,0],[0,0.25,0],[0,0.5,0],[0,0.75,0],[1,0.25,0],[1,0.5,0],[1,0.75,0]];outlineConnect=0;fontColor=#232F3E;gradientColor=#4AB29A;gradientDirection=north;fillColor=none;strokeColor=#067F68;dashed=0;verticalLabelPosition=bottom;verticalAlign=top;align=center;html=1;fontSize=12;fontStyle=0;aspect=fixed;shape=mxgraph.aws4.resourceIcon;resIcon=mxgraph.aws4.devops_guru;" vertex="1" parent="IxmQN1B3EQSxK7bYvT0Q-6">
          <mxGeometry x="30" y="230" width="50" height="50" as="geometry" />
        </mxCell>
        <mxCell id="IxmQN1B3EQSxK7bYvT0Q-79" value="Actor #6" style="sketch=0;points=[[0,0,0],[0.25,0,0],[0.5,0,0],[0.75,0,0],[1,0,0],[0,1,0],[0.25,1,0],[0.5,1,0],[0.75,1,0],[1,1,0],[0,0.25,0],[0,0.5,0],[0,0.75,0],[1,0.25,0],[1,0.5,0],[1,0.75,0]];outlineConnect=0;fontColor=#232F3E;gradientColor=#4AB29A;gradientDirection=north;fillColor=none;strokeColor=#067F68;dashed=0;verticalLabelPosition=bottom;verticalAlign=top;align=center;html=1;fontSize=12;fontStyle=0;aspect=fixed;shape=mxgraph.aws4.resourceIcon;resIcon=mxgraph.aws4.devops_guru;" vertex="1" parent="IxmQN1B3EQSxK7bYvT0Q-6">
          <mxGeometry x="110" y="230" width="50" height="50" as="geometry" />
        </mxCell>
        <mxCell id="IxmQN1B3EQSxK7bYvT0Q-43" style="edgeStyle=orthogonalEdgeStyle;rounded=0;orthogonalLoop=1;jettySize=auto;html=1;exitX=1;exitY=0.5;exitDx=0;exitDy=0;exitPerimeter=0;strokeColor=#0000FF;dashed=1;" edge="1" parent="GM6LKakHsOpX3G1ed7Ud-72" source="IxmQN1B3EQSxK7bYvT0Q-56" target="IxmQN1B3EQSxK7bYvT0Q-4">
          <mxGeometry relative="1" as="geometry">
            <Array as="points">
              <mxPoint x="350" y="240" />
            </Array>
          </mxGeometry>
        </mxCell>
        <mxCell id="IxmQN1B3EQSxK7bYvT0Q-61" value="(3) Load Model" style="edgeLabel;html=1;align=center;verticalAlign=middle;resizable=0;points=[];labelBackgroundColor=none;fontColor=#0000FF;fontStyle=1;fontSize=12;" vertex="1" connectable="0" parent="IxmQN1B3EQSxK7bYvT0Q-43">
          <mxGeometry x="-0.1339" y="-1" relative="1" as="geometry">
            <mxPoint x="-23" y="-11" as="offset" />
          </mxGeometry>
        </mxCell>
        <mxCell id="IxmQN1B3EQSxK7bYvT0Q-64" style="edgeStyle=elbowEdgeStyle;rounded=0;orthogonalLoop=1;jettySize=auto;html=1;entryX=0.396;entryY=-0.001;entryDx=0;entryDy=0;entryPerimeter=0;exitX=0.113;exitY=1.01;exitDx=0;exitDy=0;exitPerimeter=0;strokeColor=#0000FF;dashed=1;" edge="1" parent="GM6LKakHsOpX3G1ed7Ud-72" source="IxmQN1B3EQSxK7bYvT0Q-14" target="IxmQN1B3EQSxK7bYvT0Q-6">
          <mxGeometry relative="1" as="geometry">
            <mxPoint x="100.00689655172441" y="190.0000000000001" as="sourcePoint" />
            <mxPoint x="100.00000000000004" y="301.6" as="targetPoint" />
          </mxGeometry>
        </mxCell>
        <mxCell id="IxmQN1B3EQSxK7bYvT0Q-70" value="(2) Update Request" style="edgeLabel;html=1;align=center;verticalAlign=middle;resizable=0;points=[];labelBackgroundColor=none;rotation=-90;fontStyle=1;fontColor=#0000FF;fontSize=12;" vertex="1" connectable="0" parent="IxmQN1B3EQSxK7bYvT0Q-64">
          <mxGeometry x="-0.3871" y="2" relative="1" as="geometry">
            <mxPoint x="-12" y="26" as="offset" />
          </mxGeometry>
        </mxCell>
        <mxCell id="IxmQN1B3EQSxK7bYvT0Q-14" value="Learner" style="fontStyle=0;verticalAlign=top;align=center;spacingTop=-2;fillColor=none;rounded=0;whiteSpace=wrap;html=1;strokeColor=#00882B;strokeWidth=2;dashed=1;container=1;collapsible=0;expand=0;recursiveResize=0;" vertex="1" parent="GM6LKakHsOpX3G1ed7Ud-72">
          <mxGeometry x="60" y="38" width="360" height="130" as="geometry" />
        </mxCell>
        <mxCell id="IxmQN1B3EQSxK7bYvT0Q-49" value="Start Server" style="edgeStyle=elbowEdgeStyle;rounded=0;orthogonalLoop=1;jettySize=auto;html=1;fillColor=#cdeb8b;strokeColor=#36393d;entryX=0.964;entryY=0.161;entryDx=0;entryDy=0;entryPerimeter=0;labelBackgroundColor=none;" edge="1" parent="IxmQN1B3EQSxK7bYvT0Q-14" target="IxmQN1B3EQSxK7bYvT0Q-48">
          <mxGeometry x="-0.006" y="-10" relative="1" as="geometry">
            <mxPoint x="151.21424698386886" y="36.99769230769226" as="sourcePoint" />
            <mxPoint x="89.43000000000002" y="37.110000000000014" as="targetPoint" />
            <mxPoint x="10" y="-10" as="offset" />
          </mxGeometry>
        </mxCell>
        <mxCell id="IxmQN1B3EQSxK7bYvT0Q-54" style="edgeStyle=elbowEdgeStyle;rounded=0;orthogonalLoop=1;jettySize=auto;html=1;entryX=0.011;entryY=0.161;entryDx=0;entryDy=0;entryPerimeter=0;elbow=vertical;" edge="1" parent="IxmQN1B3EQSxK7bYvT0Q-14" target="IxmQN1B3EQSxK7bYvT0Q-53">
          <mxGeometry relative="1" as="geometry">
            <mxPoint x="208.78575301613137" y="37.00444444444446" as="sourcePoint" />
            <mxPoint x="261" y="37.31" as="targetPoint" />
          </mxGeometry>
        </mxCell>
        <mxCell id="IxmQN1B3EQSxK7bYvT0Q-82" value="Start Server" style="edgeLabel;html=1;align=center;verticalAlign=middle;resizable=0;points=[];labelBackgroundColor=none;" vertex="1" connectable="0" parent="IxmQN1B3EQSxK7bYvT0Q-54">
          <mxGeometry x="0.327" relative="1" as="geometry">
            <mxPoint x="-16" y="-10" as="offset" />
          </mxGeometry>
        </mxCell>
        <mxCell id="IxmQN1B3EQSxK7bYvT0Q-24" value="Learner" style="sketch=0;outlineConnect=0;fontColor=#232F3E;gradientColor=none;fillColor=#067F68;strokeColor=none;dashed=0;verticalLabelPosition=bottom;verticalAlign=top;align=center;html=1;fontSize=12;fontStyle=0;aspect=fixed;pointerEvents=1;shape=mxgraph.aws4.sagemaker_model;" vertex="1" parent="IxmQN1B3EQSxK7bYvT0Q-14">
          <mxGeometry x="151" y="29.689999999999998" width="58" height="58" as="geometry" />
        </mxCell>
        <mxCell id="IxmQN1B3EQSxK7bYvT0Q-50" style="edgeStyle=elbowEdgeStyle;orthogonalLoop=1;jettySize=auto;html=1;exitX=0.992;exitY=0.776;exitDx=0;exitDy=0;exitPerimeter=0;rounded=0;elbow=vertical;dashed=1;strokeColor=#0000FF;" edge="1" parent="IxmQN1B3EQSxK7bYvT0Q-14" source="IxmQN1B3EQSxK7bYvT0Q-48" target="IxmQN1B3EQSxK7bYvT0Q-24">
          <mxGeometry relative="1" as="geometry" />
        </mxCell>
        <mxCell id="IxmQN1B3EQSxK7bYvT0Q-74" value="(5) Load &lt;br style=&quot;font-size: 12px;&quot;&gt;Dataset" style="edgeLabel;html=1;align=center;verticalAlign=middle;resizable=0;points=[];labelBackgroundColor=none;fontStyle=1;fontColor=#0000FF;fontSize=12;" vertex="1" connectable="0" parent="IxmQN1B3EQSxK7bYvT0Q-50">
          <mxGeometry x="-0.1647" y="-2" relative="1" as="geometry">
            <mxPoint y="-4" as="offset" />
          </mxGeometry>
        </mxCell>
        <mxCell id="IxmQN1B3EQSxK7bYvT0Q-48" value="Reverb&#xa;gRPC Server" style="shape=image;verticalLabelPosition=bottom;verticalAlign=top;imageAspect=0;image=https://avatars.githubusercontent.com/u/8596759?s=200&amp;v=4" vertex="1" parent="IxmQN1B3EQSxK7bYvT0Q-14">
          <mxGeometry x="30" y="27.69" width="60" height="60" as="geometry" />
        </mxCell>
        <mxCell id="IxmQN1B3EQSxK7bYvT0Q-53" value="TensorBoard" style="shape=image;verticalLabelPosition=bottom;verticalAlign=top;imageAspect=0;image=https://upload.wikimedia.org/wikipedia/commons/thumb/2/2d/Tensorflow_logo.svg/718px-Tensorflow_logo.svg.png" vertex="1" parent="IxmQN1B3EQSxK7bYvT0Q-14">
          <mxGeometry x="280" y="26.69" width="58" height="62" as="geometry" />
        </mxCell>
        <mxCell id="IxmQN1B3EQSxK7bYvT0Q-80" style="edgeStyle=orthogonalEdgeStyle;rounded=0;orthogonalLoop=1;jettySize=auto;html=1;dashed=1;strokeColor=#0000FF;" edge="1" parent="IxmQN1B3EQSxK7bYvT0Q-14" source="IxmQN1B3EQSxK7bYvT0Q-24" target="IxmQN1B3EQSxK7bYvT0Q-24">
          <mxGeometry relative="1" as="geometry" />
        </mxCell>
        <mxCell id="IxmQN1B3EQSxK7bYvT0Q-81" value="(6) Fit" style="edgeLabel;html=1;align=center;verticalAlign=middle;resizable=0;points=[];rotation=-90;fontStyle=1;fontColor=#0000FF;labelBackgroundColor=none;fontSize=12;" vertex="1" connectable="0" parent="IxmQN1B3EQSxK7bYvT0Q-80">
          <mxGeometry x="0.1718" relative="1" as="geometry">
            <mxPoint x="8" y="-3" as="offset" />
          </mxGeometry>
        </mxCell>
        <mxCell id="IxmQN1B3EQSxK7bYvT0Q-57" value="" style="edgeStyle=orthogonalEdgeStyle;rounded=0;orthogonalLoop=1;jettySize=auto;html=1;entryX=0.5;entryY=0;entryDx=0;entryDy=0;entryPerimeter=0;strokeColor=#0000FF;dashed=1;" edge="1" parent="GM6LKakHsOpX3G1ed7Ud-72" source="IxmQN1B3EQSxK7bYvT0Q-14" target="IxmQN1B3EQSxK7bYvT0Q-56">
          <mxGeometry relative="1" as="geometry">
            <mxPoint x="1060" y="360" as="sourcePoint" />
            <mxPoint x="1170" y="470" as="targetPoint" />
          </mxGeometry>
        </mxCell>
        <mxCell id="IxmQN1B3EQSxK7bYvT0Q-58" value="&lt;font style=&quot;font-size: 12px;&quot;&gt;&lt;b style=&quot;font-size: 12px;&quot;&gt;(1) Broadcast &lt;br style=&quot;font-size: 12px;&quot;&gt;model&lt;/b&gt;&lt;/font&gt;" style="edgeLabel;html=1;align=center;verticalAlign=middle;resizable=0;points=[];labelBackgroundColor=none;fontColor=#0000FF;fontSize=12;" vertex="1" connectable="0" parent="IxmQN1B3EQSxK7bYvT0Q-57">
          <mxGeometry x="-0.6735" y="1" relative="1" as="geometry">
            <mxPoint x="43" y="14" as="offset" />
          </mxGeometry>
        </mxCell>
        <mxCell id="IxmQN1B3EQSxK7bYvT0Q-59" style="edgeStyle=orthogonalEdgeStyle;rounded=0;orthogonalLoop=1;jettySize=auto;html=1;entryX=0.511;entryY=0.004;entryDx=0;entryDy=0;entryPerimeter=0;strokeColor=#0000FF;dashed=1;" edge="1" parent="GM6LKakHsOpX3G1ed7Ud-72" source="IxmQN1B3EQSxK7bYvT0Q-56" target="IxmQN1B3EQSxK7bYvT0Q-6">
          <mxGeometry relative="1" as="geometry" />
        </mxCell>
        <mxCell id="IxmQN1B3EQSxK7bYvT0Q-60" value="(3) Load Model" style="edgeLabel;html=1;align=center;verticalAlign=middle;resizable=0;points=[];labelBackgroundColor=none;fontStyle=1;fontColor=#0000FF;fontSize=12;" vertex="1" connectable="0" parent="IxmQN1B3EQSxK7bYvT0Q-59">
          <mxGeometry x="-0.0688" relative="1" as="geometry">
            <mxPoint x="22" y="-10" as="offset" />
          </mxGeometry>
        </mxCell>
        <mxCell id="IxmQN1B3EQSxK7bYvT0Q-56" value="Workspace" style="fontColor=#0066CC;verticalAlign=top;verticalLabelPosition=bottom;labelPosition=center;align=center;html=1;outlineConnect=0;fillColor=#CCCCCC;strokeColor=#6881B3;gradientColor=none;gradientDirection=north;strokeWidth=2;shape=mxgraph.networks.storage;" vertex="1" parent="GM6LKakHsOpX3G1ed7Ud-72">
          <mxGeometry x="230" y="230" width="20" height="20" as="geometry" />
        </mxCell>
        <mxCell id="IxmQN1B3EQSxK7bYvT0Q-65" style="edgeStyle=elbowEdgeStyle;rounded=0;orthogonalLoop=1;jettySize=auto;html=1;entryX=0.599;entryY=-0.007;entryDx=0;entryDy=0;entryPerimeter=0;exitX=0.861;exitY=0.987;exitDx=0;exitDy=0;exitPerimeter=0;strokeColor=#0000FF;dashed=1;labelBackgroundColor=default;" edge="1" parent="GM6LKakHsOpX3G1ed7Ud-72" source="IxmQN1B3EQSxK7bYvT0Q-14" target="IxmQN1B3EQSxK7bYvT0Q-4">
          <mxGeometry relative="1" as="geometry">
            <mxPoint x="369.9999999999997" y="191.62999999999994" as="sourcePoint" />
            <mxPoint x="370.35999999999984" y="299.99999999999994" as="targetPoint" />
          </mxGeometry>
        </mxCell>
        <mxCell id="IxmQN1B3EQSxK7bYvT0Q-71" value="(2) Update Request" style="edgeLabel;align=center;verticalAlign=middle;resizable=0;points=[];rotation=-90;fontColor=#0000FF;labelBackgroundColor=none;fontStyle=1;html=1;fontSize=12;" vertex="1" connectable="0" parent="IxmQN1B3EQSxK7bYvT0Q-65">
          <mxGeometry x="-0.3152" y="-1" relative="1" as="geometry">
            <mxPoint x="10" y="23" as="offset" />
          </mxGeometry>
        </mxCell>
        <mxCell id="GM6LKakHsOpX3G1ed7Ud-53" style="edgeStyle=elbowEdgeStyle;rounded=0;orthogonalLoop=1;jettySize=auto;html=1;entryX=-0.002;entryY=0.126;entryDx=0;entryDy=0;entryPerimeter=0;elbow=vertical;" parent="GM6LKakHsOpX3G1ed7Ud-50" source="GM6LKakHsOpX3G1ed7Ud-46" target="GM6LKakHsOpX3G1ed7Ud-72" edge="1">
          <mxGeometry relative="1" as="geometry" />
        </mxCell>
        <mxCell id="GM6LKakHsOpX3G1ed7Ud-58" value="Launch Job" style="edgeLabel;html=1;align=center;verticalAlign=middle;resizable=0;points=[];labelBackgroundColor=none;" parent="GM6LKakHsOpX3G1ed7Ud-53" vertex="1" connectable="0">
          <mxGeometry x="-0.2293" y="-3" relative="1" as="geometry">
            <mxPoint x="3" y="6" as="offset" />
          </mxGeometry>
        </mxCell>
        <mxCell id="GM6LKakHsOpX3G1ed7Ud-56" style="edgeStyle=orthogonalEdgeStyle;rounded=0;orthogonalLoop=1;jettySize=auto;html=1;labelBackgroundColor=#73FFB4;dashed=1;strokeColor=#FF3333;startArrow=none;startFill=0;endArrow=block;endFill=1;" parent="GM6LKakHsOpX3G1ed7Ud-50" source="GM6LKakHsOpX3G1ed7Ud-46" target="GM6LKakHsOpX3G1ed7Ud-15" edge="1">
          <mxGeometry relative="1" as="geometry" />
        </mxCell>
        <mxCell id="GM6LKakHsOpX3G1ed7Ud-70" value="Prepare Mail" style="edgeLabel;html=1;align=center;verticalAlign=middle;resizable=0;points=[];labelBackgroundColor=none;rotation=-90;fontColor=#FF3333;" parent="GM6LKakHsOpX3G1ed7Ud-56" vertex="1" connectable="0">
          <mxGeometry x="0.3706" y="-2" relative="1" as="geometry">
            <mxPoint x="-8" y="-8" as="offset" />
          </mxGeometry>
        </mxCell>
        <mxCell id="GM6LKakHsOpX3G1ed7Ud-46" value="&lt;span style=&quot;&quot;&gt;&lt;b&gt;&lt;font style=&quot;font-size: 14px;&quot;&gt;SLURM&lt;/font&gt;&lt;/b&gt;&lt;/span&gt;" style="image;aspect=fixed;perimeter=ellipsePerimeter;html=1;align=center;shadow=0;dashed=0;fontColor=#4277BB;labelBackgroundColor=none;fontSize=12;spacingTop=3;image=img/lib/ibm/management/management.svg;labelBorderColor=none;imageBackground=none;" parent="GM6LKakHsOpX3G1ed7Ud-50" vertex="1">
          <mxGeometry x="201" y="119.69" width="60" height="60" as="geometry" />
        </mxCell>
        <mxCell id="GM6LKakHsOpX3G1ed7Ud-15" value="Mail Server" style="fontColor=#0066CC;verticalAlign=top;verticalLabelPosition=bottom;labelPosition=center;align=center;html=1;outlineConnect=0;fillColor=#CCCCCC;strokeColor=#6881B3;gradientColor=none;gradientDirection=north;strokeWidth=2;shape=mxgraph.networks.mail_server;" parent="GM6LKakHsOpX3G1ed7Ud-50" vertex="1">
          <mxGeometry x="178.5" y="294" width="105" height="105" as="geometry" />
        </mxCell>
        <mxCell id="GM6LKakHsOpX3G1ed7Ud-13" value="Login Node" style="fontColor=#0066CC;verticalAlign=top;verticalLabelPosition=bottom;labelPosition=center;align=center;html=1;outlineConnect=0;fillColor=#CCCCCC;strokeColor=#6881B3;gradientColor=none;gradientDirection=north;strokeWidth=2;shape=mxgraph.networks.server;" parent="GM6LKakHsOpX3G1ed7Ud-50" vertex="1">
          <mxGeometry x="40" y="99.69" width="90" height="100" as="geometry" />
        </mxCell>
        <mxCell id="GM6LKakHsOpX3G1ed7Ud-52" style="edgeStyle=orthogonalEdgeStyle;rounded=0;orthogonalLoop=1;jettySize=auto;html=1;" parent="GM6LKakHsOpX3G1ed7Ud-50" source="GM6LKakHsOpX3G1ed7Ud-13" target="GM6LKakHsOpX3G1ed7Ud-46" edge="1">
          <mxGeometry relative="1" as="geometry" />
        </mxCell>
        <mxCell id="GM6LKakHsOpX3G1ed7Ud-59" value="Submit Job&lt;br&gt;Request" style="edgeLabel;html=1;align=center;verticalAlign=middle;resizable=0;points=[];labelBackgroundColor=none;" parent="GM6LKakHsOpX3G1ed7Ud-52" vertex="1" connectable="0">
          <mxGeometry x="-0.1871" y="1" relative="1" as="geometry">
            <mxPoint x="5" y="17" as="offset" />
          </mxGeometry>
        </mxCell>
        <mxCell id="GM6LKakHsOpX3G1ed7Ud-62" value="Read" style="edgeLabel;html=1;align=center;verticalAlign=middle;resizable=0;points=[];labelBackgroundColor=none;fontColor=#AD7B4C;fontStyle=1" parent="GM6LKakHsOpX3G1ed7Ud-50" vertex="1" connectable="0">
          <mxGeometry x="844.9951612903224" y="140.0022580645161" as="geometry">
            <mxPoint x="59" y="20" as="offset" />
          </mxGeometry>
        </mxCell>
        <mxCell id="GM6LKakHsOpX3G1ed7Ud-67" value="Project Files" style="edgeLabel;html=1;align=center;verticalAlign=middle;resizable=0;points=[];fontColor=default;labelBackgroundColor=none;" parent="GM6LKakHsOpX3G1ed7Ud-50" vertex="1" connectable="0">
          <mxGeometry x="909.9977419354834" y="179.6922580645161" as="geometry" />
        </mxCell>
        <mxCell id="GM6LKakHsOpX3G1ed7Ud-64" style="edgeStyle=elbowEdgeStyle;rounded=0;orthogonalLoop=1;jettySize=auto;html=1;shape=link;strokeColor=#FF8E4D;elbow=vertical;entryX=0.5;entryY=0;entryDx=0;entryDy=0;entryPerimeter=0;" parent="GM6LKakHsOpX3G1ed7Ud-50" source="GM6LKakHsOpX3G1ed7Ud-72" target="GM6LKakHsOpX3G1ed7Ud-63" edge="1">
          <mxGeometry relative="1" as="geometry">
            <mxPoint x="772" y="320" as="sourcePoint" />
            <Array as="points">
              <mxPoint x="860" y="320" />
            </Array>
          </mxGeometry>
        </mxCell>
        <mxCell id="GM6LKakHsOpX3G1ed7Ud-65" value="&lt;font color=&quot;#ad7b4c&quot;&gt;Write&lt;/font&gt;" style="edgeLabel;html=1;align=center;verticalAlign=middle;resizable=0;points=[];labelBackgroundColor=none;fontStyle=1" parent="GM6LKakHsOpX3G1ed7Ud-64" vertex="1" connectable="0">
          <mxGeometry x="0.3104" y="4" relative="1" as="geometry">
            <mxPoint x="-55" y="-8" as="offset" />
          </mxGeometry>
        </mxCell>
        <mxCell id="GM6LKakHsOpX3G1ed7Ud-68" value="Annotation File&lt;br&gt;Standard Output&lt;br&gt;Errors" style="edgeLabel;html=1;align=center;verticalAlign=middle;resizable=0;points=[];labelBackgroundColor=none;" parent="GM6LKakHsOpX3G1ed7Ud-64" vertex="1" connectable="0">
          <mxGeometry x="0.0653" y="1" relative="1" as="geometry">
            <mxPoint x="-34" y="26" as="offset" />
          </mxGeometry>
        </mxCell>
        <mxCell id="GM6LKakHsOpX3G1ed7Ud-63" value="Workspace" style="fontColor=#0066CC;verticalAlign=top;verticalLabelPosition=bottom;labelPosition=center;align=center;html=1;outlineConnect=0;fillColor=#CCCCCC;strokeColor=#6881B3;gradientColor=none;gradientDirection=north;strokeWidth=2;shape=mxgraph.networks.storage;" parent="GM6LKakHsOpX3G1ed7Ud-50" vertex="1">
          <mxGeometry x="990" y="340" width="100" height="100" as="geometry" />
        </mxCell>
        <mxCell id="GM6LKakHsOpX3G1ed7Ud-6" value="Home Storage" style="fontColor=#0066CC;verticalAlign=top;verticalLabelPosition=bottom;labelPosition=center;align=center;html=1;outlineConnect=0;fillColor=#CCCCCC;strokeColor=#6881B3;gradientColor=none;gradientDirection=north;strokeWidth=2;shape=mxgraph.networks.storage;" parent="GM6LKakHsOpX3G1ed7Ud-50" vertex="1">
          <mxGeometry x="980" y="99.69" width="100" height="100" as="geometry" />
        </mxCell>
        <mxCell id="GM6LKakHsOpX3G1ed7Ud-36" style="edgeStyle=orthogonalEdgeStyle;orthogonalLoop=1;jettySize=auto;html=1;strokeColor=#FF8E4D;rounded=1;shape=link;entryX=0.5;entryY=0;entryDx=0;entryDy=0;entryPerimeter=0;" parent="GM6LKakHsOpX3G1ed7Ud-50" source="GM6LKakHsOpX3G1ed7Ud-13" target="GM6LKakHsOpX3G1ed7Ud-6" edge="1">
          <mxGeometry relative="1" as="geometry">
            <Array as="points">
              <mxPoint x="79" y="60" />
              <mxPoint x="1030" y="60" />
            </Array>
          </mxGeometry>
        </mxCell>
        <mxCell id="GM6LKakHsOpX3G1ed7Ud-61" value="Read / Write" style="edgeLabel;html=1;align=center;verticalAlign=middle;resizable=0;points=[];labelBackgroundColor=none;fontColor=#AD7B4C;fontStyle=1" parent="GM6LKakHsOpX3G1ed7Ud-36" vertex="1" connectable="0">
          <mxGeometry x="0.0788" relative="1" as="geometry">
            <mxPoint x="-47" y="-10" as="offset" />
          </mxGeometry>
        </mxCell>
        <mxCell id="GM6LKakHsOpX3G1ed7Ud-66" value="Project Files" style="edgeLabel;html=1;align=center;verticalAlign=middle;resizable=0;points=[];fontColor=default;labelBackgroundColor=none;" parent="GM6LKakHsOpX3G1ed7Ud-36" vertex="1" connectable="0">
          <mxGeometry x="-0.031" y="-2" relative="1" as="geometry">
            <mxPoint x="9" y="8" as="offset" />
          </mxGeometry>
        </mxCell>
        <mxCell id="GM6LKakHsOpX3G1ed7Ud-37" style="edgeStyle=elbowEdgeStyle;rounded=0;orthogonalLoop=1;jettySize=auto;html=1;strokeColor=#FF8E4D;shape=link;exitX=0.999;exitY=0.127;exitDx=0;exitDy=0;exitPerimeter=0;" parent="GM6LKakHsOpX3G1ed7Ud-50" source="GM6LKakHsOpX3G1ed7Ud-72" edge="1">
          <mxGeometry relative="1" as="geometry">
            <mxPoint x="830.0000000000003" y="159.99999999999991" as="sourcePoint" />
            <mxPoint x="978.59" y="171.04" as="targetPoint" />
          </mxGeometry>
        </mxCell>
        <mxCell id="GM6LKakHsOpX3G1ed7Ud-41" style="edgeStyle=orthogonalEdgeStyle;rounded=0;orthogonalLoop=1;jettySize=auto;html=1;strokeWidth=1;endArrow=blockThin;endFill=1;shadow=0;exitX=1;exitY=0.5;exitDx=0;exitDy=0;" parent="1" source="GM6LKakHsOpX3G1ed7Ud-47" target="GM6LKakHsOpX3G1ed7Ud-13" edge="1">
          <mxGeometry relative="1" as="geometry">
            <mxPoint x="359" y="180" as="sourcePoint" />
            <mxPoint x="484.7999999999997" y="179.70000000000005" as="targetPoint" />
          </mxGeometry>
        </mxCell>
        <mxCell id="GM6LKakHsOpX3G1ed7Ud-1" value="Terminal" style="fontColor=#0066CC;verticalAlign=top;verticalLabelPosition=bottom;labelPosition=center;align=center;html=1;outlineConnect=0;fillColor=#CCCCCC;strokeColor=#6881B3;gradientColor=none;gradientDirection=north;strokeWidth=2;shape=mxgraph.networks.terminal;" parent="1" vertex="1">
          <mxGeometry x="100" y="184.85" width="110" height="89.69" as="geometry" />
        </mxCell>
        <mxCell id="GM6LKakHsOpX3G1ed7Ud-43" value="" style="rounded=0;orthogonalLoop=1;jettySize=auto;html=1;strokeWidth=1;endArrow=blockThin;endFill=1;shadow=0;edgeStyle=elbowEdgeStyle;elbow=horizontal;" parent="1" source="GM6LKakHsOpX3G1ed7Ud-1" target="GM6LKakHsOpX3G1ed7Ud-47" edge="1">
          <mxGeometry relative="1" as="geometry">
            <mxPoint x="130" y="177" as="sourcePoint" />
            <mxPoint x="279" y="180" as="targetPoint" />
          </mxGeometry>
        </mxCell>
        <mxCell id="GM6LKakHsOpX3G1ed7Ud-71" value="Prepare Job File" style="edgeLabel;html=1;align=center;verticalAlign=middle;resizable=0;points=[];" parent="GM6LKakHsOpX3G1ed7Ud-43" vertex="1" connectable="0">
          <mxGeometry x="0.2496" y="1" relative="1" as="geometry">
            <mxPoint x="-19" y="11" as="offset" />
          </mxGeometry>
        </mxCell>
        <mxCell id="GM6LKakHsOpX3G1ed7Ud-47" value="VPN" style="image;aspect=fixed;perimeter=ellipsePerimeter;html=1;align=center;shadow=0;dashed=0;fontColor=#4277BB;labelBackgroundColor=default;fontSize=12;spacingTop=3;image=img/lib/ibm/security/vpn.svg;" parent="1" vertex="1">
          <mxGeometry x="320" y="199.69" width="60" height="60" as="geometry" />
        </mxCell>
        <mxCell id="GM6LKakHsOpX3G1ed7Ud-45" value="" style="sketch=0;outlineConnect=0;fontColor=#232F3E;gradientColor=none;fillColor=#B0084D;strokeColor=none;dashed=0;verticalLabelPosition=bottom;verticalAlign=top;align=center;html=1;fontSize=12;fontStyle=0;aspect=fixed;pointerEvents=1;shape=mxgraph.aws4.email_notification;" parent="1" vertex="1">
          <mxGeometry x="294" y="387.5" width="78" height="78" as="geometry" />
        </mxCell>
        <mxCell id="GM6LKakHsOpX3G1ed7Ud-57" style="edgeStyle=orthogonalEdgeStyle;rounded=0;orthogonalLoop=1;jettySize=auto;html=1;" parent="1" source="GM6LKakHsOpX3G1ed7Ud-15" target="GM6LKakHsOpX3G1ed7Ud-45" edge="1">
          <mxGeometry relative="1" as="geometry" />
        </mxCell>
        <mxCell id="GM6LKakHsOpX3G1ed7Ud-69" value="Email notification for &lt;br&gt;Job completion" style="edgeLabel;html=1;align=center;verticalAlign=middle;resizable=0;points=[];labelBackgroundColor=none;" parent="GM6LKakHsOpX3G1ed7Ud-57" vertex="1" connectable="0">
          <mxGeometry x="-0.0717" y="-1" relative="1" as="geometry">
            <mxPoint x="20" y="19" as="offset" />
          </mxGeometry>
        </mxCell>
      </root>
    </mxGraphModel>
  </diagram>
</mxfile>
